<svg id="Layer_1" data-name="Layer 1" xmlns="http://www.w3.org/2000/svg" viewBox="0 0 102.37 31.21"><defs><style>.cls-1{fill:#231f20;}</style></defs><title>shape_wayfarer</title><path class="cls-1" d="M104.63,6.09s-2.63-.68-11.34-1a112.09,112.09,0,0,0-26,2.4C61.07,9,58,9.92,54.77,9.92S48.46,9,42.22,7.52a112.1,112.1,0,0,0-26-2.4c-8.71.3-11.34,1-11.34,1-1.5.38-1.35.83-1.28,1.58S4.11,9,4.24,10s0,2.48,1.41,3.38A4.31,4.31,0,0,1,8,16.45c.53,1.73,2.7,9.61,3.53,11.49a10.12,10.12,0,0,0,5.93,5.93c4.06,1.8,12.32,3.75,19.45,1.13s10.21-7.66,12.47-13.82,3.53-6.08,5.41-6.08,3.15-.08,5.41,6.08S65.5,32.37,72.64,35s15.39.68,19.45-1.13A10.12,10.12,0,0,0,98,27.94c.83-1.88,3-9.76,3.53-11.49a4.31,4.31,0,0,1,2.33-3.08c1.43-.9,1.28-2.4,1.41-3.38s.54-1.58.62-2.33S106.13,6.47,104.63,6.09ZM44.18,24.94c-1.13,3.23-4.36,7.51-11.49,8.41a28.39,28.39,0,0,1-14.2-1.88,8.13,8.13,0,0,1-4.13-4.12,41.89,41.89,0,0,1-2.19-9.56c-.53-3.68,0-8.72,4.37-9.38a58.9,58.9,0,0,1,25,1.88c3.57,1.11,4.94,3.23,4.79,5.82A30.68,30.68,0,0,1,44.18,24.94Zm53.19-7.15a41.88,41.88,0,0,1-2.19,9.56A8.13,8.13,0,0,1,91,31.47a28.39,28.39,0,0,1-14.2,1.88c-7.13-.9-10.36-5.18-11.49-8.41a30.68,30.68,0,0,1-2.16-8.82C63,13.52,64.42,11.4,68,10.3A58.9,58.9,0,0,1,93,8.42C97.39,9.08,97.89,14.11,97.36,17.79Z" transform="translate(-3.58 -5.07)"/></svg>