<svg xmlns="http://www.w3.org/2000/svg" viewBox="0 0 212.4906 67.675">
  <title>round-compliment</title>
  <g id="Layer_2" data-name="Layer 2">
    <g id="Layer_2-2" data-name="Layer 2">
      <path d="M212.0138,4.8879c-1.0716-3.1256-4.5772-3.2282-7.3465-3.4387-4.4859-.3409-8.9724-.6586-13.4658-.8867Q176.8126-.168,162.3965.05,152.14.2054,141.8981.8415c-6.1486.382-12.11.6105-17.8379,3.111-1.0308.45-2.03.968-3.0235,1.496q-.2722.1447-.5439.29c-2.7017,1.4425-5.285,3.096-8.23,3.8288-.3349.0834-6.0176,1.1174-6.0176.9706,0,.1468-5.6827-.8872-6.0176-.9706-2.9449-.7328-5.5281-2.3862-8.23-3.8288q-.2718-.1452-.5439-.29C90.46,4.92,89.4612,4.4025,88.43,3.9525c-5.7276-2.5-11.6893-2.729-17.8379-3.111Q60.3545.2054,50.0941.05,35.6884-.1679,21.2891.5625c-4.4934.2281-8.98.5458-13.4658.8867-2.7693.21-6.2749.3131-7.3465,3.4387C-1.1307,9.6053,1.6778,14.0008,3.69,18.0515a55.2212,55.2212,0,0,1,3.9441,12.09C9.457,37.9276,10.9622,45.9371,14.82,52.9411a25.5421,25.5421,0,0,0,9.0463,9.8749c5.021,2.9658,10.6589,3.2018,16.28,3.9154a104.376,104.376,0,0,0,14.2993.9391c9.02-.096,20.237-1.12,27.4417-7.2278,0,0,10.496-8.8974,15.0507-29.3019,0,0,.7921-9.117,9.3077-9.117s9.3077,9.117,9.3077,9.117c4.5547,20.4045,15.05,29.3014,15.05,29.3014,7.2052,6.1077,18.4225,7.1322,27.4422,7.2282a104.376,104.376,0,0,0,14.2993-.9391c5.621-.7135,11.2589-.95,16.28-3.9154a25.5421,25.5421,0,0,0,9.0463-9.8749c3.8576-7.004,5.3628-15.0135,7.1854-22.7992a55.2212,55.2212,0,0,1,3.9441-12.09C210.8129,14.0008,213.6213,9.6053,212.0138,4.8879ZM84.8575,49.9469q-.2957.5586-.62,1.1013C74.8062,66.8,51.6111,64.8275,36.2288,62.1086c-6.3931-1.1314-11.45-3.24-15.1155-8.8966-6.3964-9.8695-6.402-22.8187-6.7564-34.1587-.1234-3.9491,1.0589-7.798,4.4862-10.048a15.6032,15.6032,0,0,1,5.7962-2.1617,57.6513,57.6513,0,0,1,7.6679-.7808A211.5015,211.5015,0,0,1,70.478,7.2778c5.9863.685,13.0453,1.7732,17.4358,6.3773C96.8364,23.0118,89.9366,40.3531,84.8575,49.9469ZM198.1337,19.0533c-.3543,11.34-.36,24.2892-6.7564,34.1587-3.6658,5.6563-8.7224,7.7651-15.1155,8.8966-15.3824,2.7189-38.5774,4.6919-48.0086-11.06q-.3246-.5423-.62-1.1013c-5.0791-9.5938-11.9789-26.9351-3.0563-36.2918,4.3905-4.6041,11.4495-5.6923,17.4358-6.3773a211.5015,211.5015,0,0,1,38.1708-1.2149,57.6513,57.6513,0,0,1,7.6679.7808,15.6032,15.6032,0,0,1,5.7962,2.1617C197.0748,11.2553,198.2571,15.1042,198.1337,19.0533Z" style="fill: #453635"/>
    </g>
  </g>
</svg>
